HIERARCHY
ROOT Hips
{
  OFFSET 57.8838 95.319 338.509
  CHANNELS 6 Xposition Yposition Zposition Zrotation Xrotation Yrotation
  JOINT LeftUpLeg
  {
    OFFSET 8.64259 1.95398 -2.38835
    CHANNELS 3 Zrotation Xrotation Yrotation
    JOINT LeftLeg
    {
      OFFSET 43.7702 0 0
      CHANNELS 3 Zrotation Xrotation Yrotation
      JOINT LeftFoot
      {
        OFFSET 40.6238 0 0
        CHANNELS 3 Zrotation Xrotation Yrotation
        JOINT LeftToeBase
        {
          OFFSET 12.7242 0 0
          CHANNELS 3 Zrotation Xrotation Yrotation
          End Site
          {
            OFFSET 0 0 0
          }
        }
      }
    }
  }
  JOINT RightUpLeg
  {
    OFFSET -8.2249 1.95398 -2.59336
    CHANNELS 3 Zrotation Xrotation Yrotation
    JOINT RightLeg
    {
      OFFSET 43.5653 0 0
      CHANNELS 3 Zrotation Xrotation Yrotation
      JOINT RightFoot
      {
        OFFSET 40.6238 0 0
        CHANNELS 3 Zrotation Xrotation Yrotation
        JOINT RightToeBase
        {
          OFFSET 12.7242 0 0
          CHANNELS 3 Zrotation Xrotation Yrotation
          End Site
          {
            OFFSET 0 0 0
          }
        }
      }
    }
  }
  JOINT Spine
  {
    OFFSET 0.165834 0.87714 6.61349
    CHANNELS 3 Zrotation Xrotation Yrotation
    JOINT Spine1
    {
      OFFSET 7.38963 1.71661e-005 0
      CHANNELS 3 Zrotation Xrotation Yrotation
      JOINT Spine2
      {
        OFFSET 11.9445 1.14441e-005 0
        CHANNELS 3 Zrotation Xrotation Yrotation
        JOINT Spine3
        {
          OFFSET 14.7254 4.19617e-005 0
          CHANNELS 3 Zrotation Xrotation Yrotation
          JOINT Spine4
          {
            OFFSET 10.9679 0 0
            CHANNELS 3 Zrotation Xrotation Yrotation
            JOINT RightShoulder
            {
              OFFSET 2.46616 -1.6653 3.69651
              CHANNELS 3 Zrotation Xrotation Yrotation
              JOINT RightArm
              {
                OFFSET 13.0012 0 0
                CHANNELS 3 Zrotation Xrotation Yrotation
                JOINT RightForeArm
                {
                  OFFSET 28.7848 1.62311e-005 0
                  CHANNELS 3 Zrotation Xrotation Yrotation
                  JOINT RightHand
                  {
                    OFFSET 26.5688 1.62095e-005 0
                    CHANNELS 3 Zrotation Xrotation Yrotation
                    End Site
                    {
                      OFFSET 0 0 0
                    }
                  }
                }
              }
            }
            JOINT LeftShoulder
            {
              OFFSET 2.38034 -1.29275 -3.7523
              CHANNELS 3 Zrotation Xrotation Yrotation
              JOINT LeftArm
              {
                OFFSET 16.3182 6.07031e-005 0
                CHANNELS 3 Zrotation Xrotation Yrotation
                JOINT LeftForeArm
                {
                  OFFSET 27.0901 0 0
                  CHANNELS 3 Zrotation Xrotation Yrotation
                  JOINT LeftHand
                  {
                    OFFSET 24.5451 1.51738e-005 0
                    CHANNELS 3 Zrotation Xrotation Yrotation
                    End Site
                    {
                      OFFSET 0 0 0
                    }
                  }
                }
              }
            }
            JOINT Neck
            {
              OFFSET 5.0226 -0.0266342 0
              CHANNELS 3 Zrotation Xrotation Yrotation
              JOINT Head
              {
                OFFSET 6.69364 2.86102e-005 0
                CHANNELS 3 Zrotation Xrotation Yrotation
                End Site
                {
                  OFFSET 0 0 0
                }
              }
            }
          }
        }
      }
    }
  }
}
MOTION
Frames:	18
Frame Time:	0.0416667
-99.2541 102.442 -85.2704 -101.043 45.2649 -73.4819 -173.887 28.9557 100.807 -22.1078 10.0952 -2.56217 36.4816 -24.0319 -9.87198 10.3257 -8.42522 3.00589 164.783 42.5131 88.4275 -30.5452 -2.57625 10.2915 49.6937 22.3291 25.951 26.9769 3.16096 -7.96564 -0.0134199 12.4511 -89.6795 1.97311 0.0970533 0.625631 -9.69801 0.124492 0.620742 -32.2319 -0.0954424 0.625867 -12.2192 -0.0954615 0.62586 100.066 -29.4874 -86.4508 9.4887 -3.67622 38.2846 4.86568 -4.4969 -1.78444 1.52531 -0.00805209 -4.01488 -81.5938 -41.0195 90.6829 0.473539 -33.4302 44.2997 2.61202 53.8852 0.0117016 8.40334 -0.304951 -10.0224 -1.01459 5.48157 -26.5528 1.89892 9.99006 29.5151 
-116.786 85.8395 -103.683 -107.751 39.9504 -72.9653 -173.852 22.0125 90.5841 -62.2776 27.0492 2.22064 59.0506 9.97989 25.7187 56.2091 12.5984 6.48381 164.934 42.6051 86.3622 -33.1785 -6.14976 9.45655 43.6843 26.8848 21.9391 28.846 0.877624 -19.4891 -0.729912 12.7006 -89.5661 1.4759 -1.29134 0.807752 -10.1947 -1.25451 0.863791 -32.7344 -1.47439 0.382239 -12.7217 -1.47438 0.382244 101.449 -46.9953 -83.1572 9.90488 15.6722 37.5282 1.63201 2.78908 0.000751639 1.63831 0.0133829 -3.80415 -82.4226 -58.3574 90.7946 -5.55853 -35.5773 9.80974 2.9432 42.0747 0.00631096 13.1111 -0.777827 -12.3798 -1.90762 6.07459 -23.3087 5.14178 10.6429 27.7363 
-129.971 75.6938 -118.17 -102.887 32.7083 -79.4628 -176.898 29.8057 86.1791 -95.4412 21.9539 5.49859 59.5571 10.4809 20.7874 62.856 19.0476 16.6626 156.834 51.6568 92.7631 -64.6269 -17.208 8.45988 61.4518 4.73549 4.25234 16.1991 16.4538 0.56345 -1.05478 12.494 -90.0496 1.88023 -2.12443 -0.149215 -9.78913 -2.12896 -0.0555378 -32.3354 -1.98132 -0.78101 -12.3228 -1.98136 -0.781019 99.8524 -57.9786 -85.2738 25.8598 9.21306 3.5062 3.014 13.2781 -7.74497 10.6858 -0.185123 -7.21392 -84.8599 -59.6507 87.5431 -20.3887 -17.5235 -27.999 -5.56133 20.5505 -4.06006 11.0804 -0.812394 -9.98646 6.29485 3.22215 -16.2028 2.60924 7.13933 20.7433 
-141.255 71.5372 -128.5 -109.918 41.4588 -69.6587 178.516 45.1696 91.5328 -107.891 14.3475 6.39764 57.9911 2.89654 12.2205 51.5388 11.4374 12.565 155.97 49.3186 102.759 -88.177 -18.3546 1.94817 64.3605 -0.558642 3.04688 29.4094 -0.987987 4.22335 -0.0694322 13.1509 -90.3734 0.566416 -0.27872 -0.733325 -11.1047 -0.310723 -0.720358 -33.638 -0.045453 -0.783207 -13.6254 -0.0454503 -0.783203 94.4513 -51.7653 -93.6782 14.7444 3.30824 -29.5159 13.4737 18.1024 -35.534 1.4479 -0.144713 -9.71753 -88.9547 -54.3475 81.1309 -28.635 -18.3128 -46.3208 -0.312878 35.3726 -2.54327 29.0938 -1.6088 -9.92647 8.53001 3.4679 -11.7122 1.04554 6.49145 22.3495 
-152.59 70.2069 -138.485 -110.591 48.9668 -72.7595 170.898 53.4596 93.2557 -74.7348 24.9386 4.96853 55.0654 -2.98078 10.9054 50.3052 11.1129 14.7865 159.882 41.311 97.4259 -93.6088 -21.7183 0.441524 65.7905 -20.4494 -18.0347 44.6516 -20.9966 -0.571796 0.000495214 12.7876 -89.6234 1.30734 0.146039 0.72666 -10.3636 0.177859 0.719524 -32.8987 -0.0791297 0.736956 -12.886 -0.0791275 0.736946 96.8906 -46.8465 -90.5353 23.9547 11.4988 -42.6213 14.0189 9.14736 -51.8922 -3.84355 0.121945 -10.1178 -89.6269 -58.2399 80.8751 -24.9676 -24.984 -44.7712 2.18487 45.6474 0.14168 22.1843 -1.16085 -10.5816 12.7737 2.94907 -16.0595 -4.96637 6.24149 26.9935 
-164.438 69.7116 -149.464 -111.428 53.679 -71.2961 171.93 55.2371 95.9035 -69.091 25.3106 4.10415 53.319 -5.44632 9.1088 39.0104 4.31318 3.93854 166.956 34.5868 92.4825 -101.636 -16.9715 -1.86741 69.4905 -17.3072 -6.49873 49.4321 -29.147 -4.47928 -0.0085136 12.3279 -89.2568 2.21394 0.271251 1.45585 -9.45778 0.335079 1.44248 -31.9864 -0.178751 1.47007 -11.9738 -0.178759 1.47006 95.7247 -51.9076 -91.763 18.519 1.16953 -34.5983 5.38207 6.04401 -55.532 0.475026 -0.0820345 -10.7912 -88.845 -60.6171 82.3388 -20.414 -27.6314 -32.3348 0.59334 33.8843 -0.00799548 18.8307 -0.451936 -7.74847 18.6469 4.27526 -21.92 -11.6362 8.04006 33.0485 
-174.272 70.5824 -158.613 -108.743 52.4518 -74.3954 -179.872 54.3486 87.0219 -82.0368 26.7116 3.80642 57.4924 2.07292 15.6954 46.9837 8.20827 6.66067 172.564 30.8834 88.0215 -106.348 -20.6787 -2.46595 63.7666 -5.72955 -3.94407 40.6694 -17.6008 -7.72894 -0.476326 12.152 -89.0622 2.5724 -0.584984 1.82498 -9.09969 -0.504121 1.84894 -31.6282 -1.10639 1.5649 -11.6156 -1.10637 1.56489 93.538 -57.26 -94.2543 20.1111 0.470484 -27.6423 0.576519 -0.650203 -37.5463 -10.8996 0.186004 -7.38857 -89.1196 -62.9766 82.3534 -21.9011 -30.8573 -37.7217 4.83024 45.7242 0.212999 15.738 -0.569733 -9.46231 24.4939 3.85725 -23.1083 -14.4219 8.30474 33.585 
-180.476 74.8174 -165.413 -100.671 48.0026 -80.7603 179.653 51.8983 85.2064 -83.0304 30.4534 4.10821 57.5238 1.89225 15.5554 49.5343 9.38925 6.38753 168.03 38.7003 94.5076 -107.339 -18.9575 -2.2656 58.8712 5.47593 0.203213 23.3274 7.76702 -3.1912 -0.288087 11.8374 -89.482 3.19783 -0.369773 1.00712 -8.47351 -0.325078 1.02241 -31.0065 -0.655351 0.849443 -10.9938 -0.655339 0.849445 93.254 -58.4183 -94.4807 23.3171 5.83831 -24.0275 3.83239 0.790618 -13.7332 -7.34889 -0.036507 -4.81545 -88.7116 -61.047 82.5871 -19.5101 -22.2952 -43.392 -0.0830777 45.0684 -2.92844 11.743 -0.778634 -11.2823 23.3947 1.80929 -20.7782 -11.6333 6.29726 31.5259 
-186.114 80.4246 -171.555 -96.1372 44.1074 -83.6571 178.993 45.1606 85.6302 -77.6635 31.6365 4.03818 57.9858 2.67466 15.104 49.5075 9.11961 4.71571 165.311 44.2507 99.6442 -96.204 -17.7416 -1.00359 63.6679 0.838524 5.36236 28.6789 0.316877 -3.93838 -0.154995 11.3793 -89.8912 4.11646 -0.265913 0.215842 -7.55445 -0.256147 0.227331 -30.0899 -0.318486 0.125956 -10.0773 -0.318483 0.125944 92.9578 -59.643 -94.7131 20.528 -0.883972 -19.8807 3.53145 -8.47616 -4.69691 -0.0698885 -0.0148744 -2.83145 -87.5552 -57.0311 83.5347 -16.7955 -14.828 -44.324 8.40841 42.2927 -23.2365 8.0812 -1.12429 -15.4961 20.9257 1.04854 -19.5582 -9.90959 5.2778 30.1056 
-191.505 85.9718 -177.758 -94.6971 41.5494 -83.4941 177.794 35.8574 87.6635 -70.4319 31.9926 4.56549 58.0095 2.33544 13.5599 48.9404 8.91174 5.06734 169.561 43.9916 98.7028 -74.4516 -10.2978 0.290744 66.044 -1.50959 6.82442 32.46 -5.20506 -5.84928 -0.203801 10.7141 -90.2915 5.44399 -0.528307 -0.560598 -6.22697 -0.552485 -0.536802 -28.7616 -0.33542 -0.693462 -8.74892 -0.335435 -0.693453 92.8341 -60.685 -94.7287 19.1176 -1.95729 -15.2002 3.59039 -10.7197 -4.21222 0.995722 -0.00144727 -3.24002 -86.6895 -57.9137 84.8623 -10.1658 -11.0142 -43.5561 14.0669 35.9754 -39.4106 7.56944 -1.01413 -14.959 20.1119 1.09761 -17.5753 -13.4439 3.86471 27.5594 
-197.372 91.419 -184.31 -97.482 39.2712 -82.6681 178.378 21.227 87.57 -58.5361 32.7895 4.58313 56.7515 0.792325 12.3474 49.8858 9.31678 4.87542 176.406 34.633 93.0981 -46.9608 -8.16829 0.181624 68.2274 -1.78505 10.3893 32.7848 -5.67686 -5.7691 -0.327592 10.3331 -90.3461 6.20561 -0.80064 -0.650786 -5.46524 -0.828495 -0.614927 -28.0002 -0.568041 -0.861315 -7.98756 -0.568045 -0.86133 94.6557 -58.706 -92.4871 20.6966 -2.7118 -13.2765 3.59943 -9.79599 -5.87654 -2.53059 -0.0672607 -2.72814 -86.4958 -55.8577 84.8478 -10.2067 -10.0584 -45.1005 16.4583 36.6077 -42.3634 8.7734 -1.1078 -14.7378 16.7102 0.779341 -16.1086 -15.1979 2.38223 25.8333 
-203.908 94.3219 -191.183 -97.2061 34.7937 -83.2219 178.193 9.79688 87.5153 -49.0954 31.8476 5.58485 56.7957 1.55825 10.2854 51.0827 9.81594 4.57861 176.588 24.8913 91.342 -28.5947 -4.66588 -0.32881 68.6976 2.15406 13.0865 31.0057 -3.0439 -4.90869 -0.560232 9.49057 -90.4333 7.8875 -1.30736 -0.789433 -3.78299 -1.34082 -0.73113 -26.3197 -1.00967 -1.14585 -6.30708 -1.00967 -1.14586 93.8501 -56.9839 -93.8455 21.9183 -3.35095 -9.63042 3.0548 -10.2305 -8.56332 -5.12114 -0.161018 -1.68282 -86.3652 -54.0359 84.7794 -12.0033 -9.26469 -46.398 17.0744 43.9792 -38.2399 8.26358 -1.16527 -15.8812 10.3681 0.697973 -13.4409 -16.6517 1.06388 21.1428 
-210.107 94.8674 -198.693 -98.1038 34.4426 -82.5443 179.282 1.25312 90.5235 -45.6641 32.429 6.87508 56.5091 0.933585 7.65792 54.0039 11.1822 4.73026 176.142 18.6663 92.2321 -26.3749 -7.39418 -0.388878 64.4378 8.26381 12.3522 27.8112 1.4909 -2.93705 -0.51309 8.58422 -90.4514 9.70043 -1.22695 -0.798586 -1.97015 -1.26089 -0.743823 -24.5063 -0.930215 -1.13041 -4.49363 -0.930216 -1.13041 94.2603 -57.2646 -93.2257 20.5444 -5.9549 -8.48116 3.06247 -9.31872 -10.7662 -6.66396 -0.340836 0.761397 -85.3856 -54.7486 86.2777 -13.4311 -9.52022 -42.6381 12.1004 47.796 -30.7001 6.87638 -0.990007 -15.4405 6.895 0.862365 -9.41617 -19.6089 0.307117 15.7223 
-215.784 94.6779 -205.161 -97.936 38.2168 -81.4769 179.638 1.75754 90.6719 -50.9107 24.8067 6.49141 50.755 -7.94655 -0.311901 47.2381 8.06575 4.58283 176.753 16.5873 94.928 -31.3 -13.9501 -0.247504 65.6242 3.11502 6.85007 25.1855 4.62133 1.39034 -0.315319 7.97496 -90.6887 10.917 -0.946273 -1.2806 -0.75423 -1.0017 -1.23772 -23.2854 -0.517718 -1.50575 -3.27272 -0.517718 -1.50575 93.9808 -57.2928 -93.6183 17.7885 -8.33074 -12.3199 2.58948 -9.72355 -12.5867 -8.38307 -0.292876 -1.181 -84.2798 -58.1408 88.2141 -14.808 -12.6238 -33.7568 7.16683 47.9074 -22.7439 11.5004 -1.35879 -14.7668 7.04387 1.63008 -8.23329 -21.1781 0.502564 16.3425 
-220.487 94.8103 -210.769 -100.227 37.9755 -81.0455 179.214 5.99205 88.7813 -62.1581 22.9084 6.0953 48.287 -10.2252 2.24115 34.4987 2.31656 8.91282 175.721 11.9627 95.2251 -35.4725 -9.36938 -1.2346 70.0476 0.989598 9.80272 25.1551 4.43851 3.24921 -0.36409 7.79595 -90.5959 11.2758 -1.00198 -1.08662 -0.395132 -1.04883 -1.04148 -22.928 -0.62912 -1.33749 -2.91541 -0.629117 -1.33749 94.5345 -57.7196 -92.778 17.4512 -9.05362 -15.1449 0.687503 -9.10881 -18.3769 -9.38825 -0.28399 -1.72501 -83.6404 -57.9056 89.0735 -20.9024 -17.1955 -27.3221 -1.53564 51.7659 -6.63544 12.9876 -1.11901 -12.1512 4.72716 1.2586 -10.6859 -20.5479 0.521752 16.3045 
-225.117 95.1387 -215.764 -100.011 38.6374 -81.902 -177.963 13.2978 88.2073 -63.9261 18.3278 3.99143 52.1163 -5.37469 4.87922 39.198 4.71311 10.5174 175.057 6.45959 94.3085 -33.7209 -10.7832 -1.28991 72.8219 -2.5803 10.3354 26.9886 2.13066 3.22445 -0.143967 7.65555 -90.5496 11.56 -0.543718 -1.03981 -0.111225 -0.588941 -1.01488 -22.6433 -0.206098 -1.15513 -2.63064 -0.206108 -1.15514 95.2456 -57.9311 -91.749 17.7315 -9.86382 -17.5477 -1.13096 -7.46069 -25.3092 -11.6128 -0.210883 -3.19782 -82.8618 -59.1856 90.2552 -26.8122 -25.7297 -25.9383 1.01194 68.004 0.971847 6.38142 -0.490057 -12.5464 5.93805 0.54224 -10.9169 -21.5276 -0.0777977 15.7071 
-229.346 95.8864 -220.055 -99.778 38.6288 -83.3802 -176.294 17.4008 86.4688 -50.9211 15.0441 1.08746 55.5164 -0.547089 6.03526 45.2579 8.31422 14.4729 173.558 0.819748 92.996 -30.3178 -6.79867 -1.3702 74.414 -1.5822 14.2979 26.1927 2.9464 5.23879 -0.0798358 7.69565 -90.3407 11.4813 -0.318012 -0.64591 -0.189705 -0.346118 -0.631296 -22.7237 -0.109205 -0.711625 -2.71102 -0.109192 -0.711624 95.4045 -57.7871 -91.541 17.4813 -16.1209 -19.2966 -8.1052 -12.8186 -33.4927 -11.024 -0.469008 -0.123143 -82.9528 -59.7654 90.1763 -30.4572 -35.869 -22.7264 11.9396 83.4359 0.013081 -0.331368 0.167946 -11.5507 8.10799 -0.0656411 -12.7438 -20.4126 -0.175286 17.2638 
-233.493 96.2285 -223.94 -97.6789 39.5844 -84.6955 -177.939 18.4424 86.8245 -26.1112 9.29561 -1.14223 55.8157 -1.34911 4.85792 44.1358 7.67691 14.5377 173.84 -3.933 92.903 -24.7718 -5.63793 -2.15754 75.5687 -4.06842 19.0679 26.7132 2.54516 2.42379 -0.00571636 7.67641 -90.2372 11.5206 -0.122244 -0.460019 -0.150458 -0.142368 -0.454209 -22.6849 0.0216596 -0.475498 -2.6723 0.0216498 -0.475499 96.0346 -57.8654 -90.6428 15.8516 -21.1695 -22.191 -9.11927 -7.08667 -39.6176 -9.69897 -0.113003 -4.01362 -82.5808 -59.5201 90.6632 -29.1849 -41.4863 -14.9199 -162.194 89.5963 178.022 -6.12734 0.539143 -11.0608 11.8845 -0.165796 -14.3685 -20.6161 0.224233 19.0256 
